# xmcd
#
# Track frame offsets: 
#        150
#        26212
#        53082
#        74507
#        95085
#        122847
#        144472
#        166262
#        184172
#        210602
#        228347
#        245845
#        264082
#
# Disc length: 3779 seconds
#
# Revision: 1
# Processed by: cddbd v1.5.2PL0 Copyright (c) Steve Scherf et al.
# Submitted via: ExactAudioCopy v0.99pb3
#
DISCID=be0ec10d
DTITLE=Various Artist - KYOT 95.5 Smooth Jazz Sampler 2000 - Vol 6
DYEAR=2000
DGENRE=Jazz
TTITLE0=Down to the Bone - Long Way from Brooklyn
TTITLE1=Joe Sample - Hippies on a Corner
TTITLE2=Bryan Savage - Soul Temptation
TTITLE3=Brian Culbertson - Back in the Day
TTITLE4=Jeff Golub - The Velvet Touch
TTITLE5=Patrice Rushen - Forget Me Nots
TTITLE6=Nelson Rangell - The Way to You
TTITLE7=Roger Smith - Off the Hook
TTITLE8=Gerald Albright - Bermuda Nights
TTITLE9=Gota - In the City Life
TTITLE10=Steve C. - Say It Again
TTITLE11=Jeffrey Osborne - On the Wings of Love
TTITLE12=Bona Fide - High Street
EXTD=YEAR: 2000
EXTT0=
EXTT1=
EXTT2=
EXTT3=
EXTT4=
EXTT5=
EXTT6=
EXTT7=
EXTT8=
EXTT9=
EXTT10=
EXTT11=
EXTT12=
PLAYORDER=
